%
M48
M72
T01C0.02400
T02C0.02756
T03C0.03200
T04C0.03543
T05C0.04000
T06C0.04331
T07C0.04400
T08C0.09843
%
T01
X71800Y84150
X83150Y85550
X82700Y92850
X89950Y93050
X103650Y106800
X100550Y121175
X98300Y127200
X103500Y129425
X110900Y129225
X119300Y146800
X78050Y153050
X66850Y113050
X61450Y95550
X56200Y89100
X90550Y77425
X108450Y72675
X113850Y75925
X116200Y69925
X119950Y73675
X134250Y74075
X142050Y88050
X147200Y97550
X156975Y85575
X162775Y95975
X169975Y75675
X160025Y69725
X151425Y73475
X161025Y128975
X145950Y202475
X137425Y207425
X131625Y224300
X125225Y225300
X147725Y224275
X158025Y228825
X159650Y220925
X158675Y207425
X148925Y237325
X146725Y248575
X150550Y251850
X156150Y252875
X170900Y239300
X191575Y246175
X197775Y246375
X203575Y246375
X212400Y250625
X196175Y268050
X201375Y272450
X191175Y263050
X205750Y288150
X218675Y290550
X139100Y257000
X117425Y264300
X80200Y276125
X192650Y212150
X196800Y204925
T02
X175600Y221200
X155000Y198000
X120800Y214200
X110800Y227600
X129800Y241000
X111800Y257600
X132200Y259600
X182400Y164600
X166200Y84200
T03
X146800Y161800
X136800Y161800
X126800Y161800
X116800Y161800
X106800Y161800
X96800Y161800
X86800Y161800
X76800Y161800
X66800Y161800
X51800Y191800
X36800Y191800
X71800Y216800
X81800Y216800
X106800Y217300
X106800Y236300
X81800Y241800
X71800Y241800
X51800Y241800
X36800Y241800
X91800Y281800
X101800Y281800
X116800Y271800
X126800Y271800
X296800Y216800
X306800Y216800
X316800Y216800
X326800Y216800
X336800Y216800
X346800Y216800
T04
X251800Y261800
X251800Y271800
X251800Y281800
X241800Y281800
X241800Y271800
X241800Y261800
T05
X41800Y46800
X36800Y71800
X36800Y81800
X36800Y91800
X36800Y101800
X36800Y111800
X36800Y121800
X36800Y131800
X36800Y141800
X26800Y141800
X26800Y131800
X26800Y121800
X26800Y111800
X26800Y101800
X26800Y91800
X26800Y81800
X26800Y71800
X71800Y26800
X81800Y26800
X81800Y16800
X71800Y16800
X91800Y16800
X101800Y16800
X101800Y26800
X91800Y26800
X111800Y26800
X121800Y26800
X121800Y16800
X111800Y16800
X131800Y16800
X141800Y16800
X141800Y26800
X131800Y26800
X186800Y66800
X186800Y76800
X186800Y86800
X186800Y96800
X186800Y106800
X186800Y116800
X186800Y126800
X186800Y136800
X196800Y136800
X196800Y126800
X196800Y116800
X196800Y106800
X196800Y96800
X196800Y86800
X196800Y76800
X196800Y66800
X271800Y76800
X271800Y86800
X271800Y96800
X271800Y106800
X271800Y116800
X271800Y126800
X271800Y136800
X271800Y146800
X226800Y186800
X216800Y186800
X206800Y186800
X196800Y186800
X186800Y186800
X176800Y186800
X166800Y186800
X156800Y186800
X136800Y181800
X126800Y181800
X116800Y181800
X51800Y261800
X41800Y261800
X106800Y301800
X116800Y301800
X126800Y301800
X136800Y301800
X146800Y301800
X156800Y301800
X176800Y301800
X186800Y301800
X196800Y301800
X206800Y301800
X216800Y301800
X226800Y301800
X236800Y301800
X246800Y301800
X294000Y280700
X294000Y262900
X319600Y262900
X319600Y280700
X241800Y246800
X241800Y236800
X241800Y226800
X241800Y216800
X371800Y136800
X371800Y126800
X371800Y116800
X371800Y106800
X371800Y96800
X371800Y86800
X371800Y76800
X371800Y66800
T06
X58458Y299800
X40742Y299800
T07
X304300Y176800
X304300Y166800
X304300Y156800
X304300Y146800
X304300Y136800
X304300Y126800
X304300Y116800
X304300Y106800
X304300Y96800
X304300Y86800
X304300Y76800
X304300Y66800
X346800Y66800
X346800Y76800
X346800Y86800
X346800Y96800
X346800Y106800
X346800Y116800
X346800Y126800
X346800Y136800
X346800Y146800
X346800Y156800
X346800Y166800
X346800Y176800
T08
X72041Y299800
X27159Y299800
M30
