G75*
%MOIN*%
%OFA0B0*%
%FSLAX25Y25*%
%IPPOS*%
%LPD*%
%AMOC8*
5,1,8,0,0,1.08239X$1,22.5*
%
%ADD10C,0.00600*%
D10*
X0010099Y0011300D02*
X0010099Y0014503D01*
X0011167Y0015570D01*
X0012234Y0014503D01*
X0012234Y0011300D01*
X0014370Y0011300D02*
X0014370Y0015570D01*
X0013302Y0015570D01*
X0012234Y0014503D01*
X0016545Y0014503D02*
X0017612Y0015570D01*
X0019747Y0015570D01*
X0020815Y0014503D01*
X0020815Y0012368D01*
X0019747Y0011300D01*
X0017612Y0011300D01*
X0016545Y0012368D01*
X0016545Y0014503D01*
X0022977Y0015570D02*
X0025112Y0015570D01*
X0024044Y0016638D02*
X0024044Y0012368D01*
X0022977Y0011300D01*
X0027274Y0011300D02*
X0028341Y0012368D01*
X0028341Y0016638D01*
X0027274Y0015570D02*
X0029409Y0015570D01*
X0031584Y0014503D02*
X0032652Y0015570D01*
X0034787Y0015570D01*
X0035855Y0014503D01*
X0035855Y0012368D01*
X0034787Y0011300D01*
X0032652Y0011300D01*
X0031584Y0012368D01*
X0031584Y0014503D01*
X0038030Y0015570D02*
X0039097Y0014503D01*
X0042300Y0014503D01*
X0042300Y0017705D02*
X0042300Y0011300D01*
X0039097Y0011300D01*
X0038030Y0012368D01*
X0038030Y0013435D01*
X0039097Y0014503D01*
X0038030Y0015570D02*
X0038030Y0016638D01*
X0039097Y0017705D01*
X0042300Y0017705D01*
M02*
