G75*
%MOIN*%
%OFA0B0*%
%FSLAX25Y25*%
%IPPOS*%
%LPD*%
%AMOC8*
5,1,8,0,0,1.08239X$1,22.5*
%
%ADD10OC8,0.07800*%
%ADD11OC8,0.07100*%
%ADD12C,0.06000*%
%ADD13C,0.06800*%
%ADD14OC8,0.06800*%
%ADD15C,0.07200*%
%ADD16C,0.06000*%
%ADD17OC8,0.06000*%
%ADD18R,0.06706X0.02769*%
%ADD19R,0.02769X0.06706*%
%ADD20R,0.14100X0.25800*%
%ADD21R,0.06600X0.02200*%
%ADD22R,0.07400X0.07400*%
%ADD23C,0.07400*%
%ADD24C,0.14643*%
%ADD25R,0.05524X0.08674*%
%ADD26C,0.05131*%
%ADD27C,0.04800*%
%ADD28C,0.05156*%
%ADD29OC8,0.05156*%
D10*
X0071800Y0016800D03*
X0081800Y0016800D03*
X0081800Y0026800D03*
X0071800Y0026800D03*
X0091800Y0026800D03*
X0101800Y0026800D03*
X0101800Y0016800D03*
X0091800Y0016800D03*
X0111800Y0016800D03*
X0121800Y0016800D03*
X0121800Y0026800D03*
X0111800Y0026800D03*
X0131800Y0026800D03*
X0141800Y0026800D03*
X0141800Y0016800D03*
X0131800Y0016800D03*
X0186800Y0066800D03*
X0186800Y0076800D03*
X0186800Y0086800D03*
X0186800Y0096800D03*
X0186800Y0106800D03*
X0186800Y0116800D03*
X0186800Y0126800D03*
X0186800Y0136800D03*
X0196800Y0136800D03*
X0196800Y0126800D03*
X0196800Y0116800D03*
X0196800Y0106800D03*
X0196800Y0096800D03*
X0196800Y0086800D03*
X0196800Y0076800D03*
X0196800Y0066800D03*
X0271800Y0076800D03*
X0271800Y0086800D03*
X0271800Y0096800D03*
X0271800Y0106800D03*
X0271800Y0116800D03*
X0271800Y0126800D03*
X0271800Y0136800D03*
X0271800Y0146800D03*
X0371800Y0136800D03*
X0371800Y0126800D03*
X0371800Y0116800D03*
X0371800Y0106800D03*
X0371800Y0096800D03*
X0371800Y0086800D03*
X0371800Y0076800D03*
X0371800Y0066800D03*
X0036800Y0071800D03*
X0036800Y0081800D03*
X0036800Y0091800D03*
X0036800Y0101800D03*
X0036800Y0111800D03*
X0036800Y0121800D03*
X0036800Y0131800D03*
X0036800Y0141800D03*
X0026800Y0141800D03*
X0026800Y0131800D03*
X0026800Y0121800D03*
X0026800Y0111800D03*
X0026800Y0101800D03*
X0026800Y0091800D03*
X0026800Y0081800D03*
X0026800Y0071800D03*
D11*
X0071800Y0216800D03*
X0081800Y0216800D03*
X0081800Y0241800D03*
X0071800Y0241800D03*
X0091800Y0281800D03*
X0101800Y0281800D03*
X0116800Y0271800D03*
X0126800Y0271800D03*
D12*
X0126800Y0164400D02*
X0126800Y0159200D01*
X0116800Y0159200D02*
X0116800Y0164400D01*
X0106800Y0164400D02*
X0106800Y0159200D01*
X0096800Y0159200D02*
X0096800Y0164400D01*
X0086800Y0164400D02*
X0086800Y0159200D01*
X0076800Y0159200D02*
X0076800Y0164400D01*
X0066800Y0164400D02*
X0066800Y0159200D01*
X0136800Y0159200D02*
X0136800Y0164400D01*
X0146800Y0164400D02*
X0146800Y0159200D01*
X0296800Y0214200D02*
X0296800Y0219400D01*
X0306800Y0219400D02*
X0306800Y0214200D01*
X0316800Y0214200D02*
X0316800Y0219400D01*
X0326800Y0219400D02*
X0326800Y0214200D01*
X0336800Y0214200D02*
X0336800Y0219400D01*
X0346800Y0219400D02*
X0346800Y0214200D01*
D13*
X0322600Y0262900D02*
X0316600Y0262900D01*
X0316600Y0280700D02*
X0322600Y0280700D01*
X0297000Y0280700D02*
X0291000Y0280700D01*
X0291000Y0262900D02*
X0297000Y0262900D01*
X0244800Y0246800D02*
X0238800Y0246800D01*
X0238800Y0236800D02*
X0244800Y0236800D01*
X0244800Y0226800D02*
X0238800Y0226800D01*
X0238800Y0216800D02*
X0244800Y0216800D01*
X0226800Y0189800D02*
X0226800Y0183800D01*
X0216800Y0183800D02*
X0216800Y0189800D01*
X0206800Y0189800D02*
X0206800Y0183800D01*
X0196800Y0183800D02*
X0196800Y0189800D01*
X0186800Y0189800D02*
X0186800Y0183800D01*
X0176800Y0183800D02*
X0176800Y0189800D01*
X0166800Y0189800D02*
X0166800Y0183800D01*
X0156800Y0183800D02*
X0156800Y0189800D01*
X0136800Y0184800D02*
X0136800Y0178800D01*
X0126800Y0178800D02*
X0126800Y0184800D01*
X0116800Y0184800D02*
X0116800Y0178800D01*
X0051800Y0258800D02*
X0051800Y0264800D01*
X0041800Y0264800D02*
X0041800Y0258800D01*
X0106800Y0298800D02*
X0106800Y0304800D01*
X0116800Y0304800D02*
X0116800Y0298800D01*
X0126800Y0298800D02*
X0126800Y0304800D01*
X0136800Y0304800D02*
X0136800Y0298800D01*
X0146800Y0298800D02*
X0146800Y0304800D01*
X0156800Y0304800D02*
X0156800Y0298800D01*
X0176800Y0298800D02*
X0176800Y0304800D01*
X0186800Y0304800D02*
X0186800Y0298800D01*
X0196800Y0298800D02*
X0196800Y0304800D01*
X0206800Y0304800D02*
X0206800Y0298800D01*
X0216800Y0298800D02*
X0216800Y0304800D01*
X0226800Y0304800D02*
X0226800Y0298800D01*
X0236800Y0298800D02*
X0236800Y0304800D01*
X0246800Y0304800D02*
X0246800Y0298800D01*
D14*
X0041800Y0046800D03*
D15*
X0241800Y0261800D03*
X0241800Y0271800D03*
X0241800Y0281800D03*
X0251800Y0281800D03*
X0251800Y0271800D03*
X0251800Y0261800D03*
D16*
X0106800Y0236300D03*
X0106800Y0217300D03*
D17*
X0051800Y0241800D03*
X0036800Y0241800D03*
X0036800Y0191800D03*
X0051800Y0191800D03*
D18*
X0138965Y0221052D03*
X0138965Y0224202D03*
X0138965Y0227351D03*
X0138965Y0230501D03*
X0138965Y0233650D03*
X0138965Y0236800D03*
X0138965Y0239950D03*
X0138965Y0243099D03*
X0138965Y0246249D03*
X0138965Y0249398D03*
X0138965Y0252548D03*
X0184635Y0252548D03*
X0184635Y0249398D03*
X0184635Y0246249D03*
X0184635Y0243099D03*
X0184635Y0239950D03*
X0184635Y0236800D03*
X0184635Y0233650D03*
X0184635Y0230501D03*
X0184635Y0227351D03*
X0184635Y0224202D03*
X0184635Y0221052D03*
D19*
X0177548Y0213965D03*
X0174398Y0213965D03*
X0171249Y0213965D03*
X0168099Y0213965D03*
X0164950Y0213965D03*
X0161800Y0213965D03*
X0158650Y0213965D03*
X0155501Y0213965D03*
X0152351Y0213965D03*
X0149202Y0213965D03*
X0146052Y0213965D03*
X0146052Y0259635D03*
X0149202Y0259635D03*
X0152351Y0259635D03*
X0155501Y0259635D03*
X0158650Y0259635D03*
X0161800Y0259635D03*
X0164950Y0259635D03*
X0168099Y0259635D03*
X0171249Y0259635D03*
X0174398Y0259635D03*
X0177548Y0259635D03*
D20*
X0111800Y0091800D03*
D21*
X0126700Y0091800D03*
X0126700Y0089200D03*
X0126700Y0086700D03*
X0126700Y0084100D03*
X0126700Y0081600D03*
X0126700Y0079000D03*
X0126700Y0076400D03*
X0126700Y0073900D03*
X0126700Y0071300D03*
X0126700Y0068800D03*
X0126700Y0094400D03*
X0126700Y0096900D03*
X0126700Y0099500D03*
X0126700Y0102000D03*
X0126700Y0104600D03*
X0126700Y0107200D03*
X0126700Y0109700D03*
X0126700Y0112300D03*
X0126700Y0114800D03*
X0096900Y0114800D03*
X0096900Y0112300D03*
X0096900Y0109700D03*
X0096900Y0107200D03*
X0096900Y0104600D03*
X0096900Y0102000D03*
X0096900Y0099500D03*
X0096900Y0096900D03*
X0096900Y0094400D03*
X0096900Y0091800D03*
X0096900Y0089200D03*
X0096900Y0086700D03*
X0096900Y0084100D03*
X0096900Y0081600D03*
X0096900Y0079000D03*
X0096900Y0076400D03*
X0096900Y0073900D03*
X0096900Y0071300D03*
X0096900Y0068800D03*
D22*
X0304300Y0176800D03*
D23*
X0304300Y0166800D03*
X0304300Y0156800D03*
X0304300Y0146800D03*
X0304300Y0136800D03*
X0304300Y0126800D03*
X0304300Y0116800D03*
X0304300Y0106800D03*
X0304300Y0096800D03*
X0304300Y0086800D03*
X0304300Y0076800D03*
X0304300Y0066800D03*
X0346800Y0066800D03*
X0346800Y0076800D03*
X0346800Y0086800D03*
X0346800Y0096800D03*
X0346800Y0106800D03*
X0346800Y0116800D03*
X0346800Y0126800D03*
X0346800Y0136800D03*
X0346800Y0146800D03*
X0346800Y0156800D03*
X0346800Y0166800D03*
X0346800Y0176800D03*
D24*
X0072041Y0299800D03*
X0027159Y0299800D03*
D25*
X0035820Y0289564D03*
X0045663Y0289564D03*
X0053537Y0289564D03*
X0063380Y0289564D03*
D26*
X0058458Y0299800D03*
X0040742Y0299800D03*
D27*
X0080200Y0276125D03*
X0117425Y0264300D03*
X0139100Y0257000D03*
X0146725Y0248575D03*
X0150550Y0251850D03*
X0156150Y0252875D03*
X0148925Y0237325D03*
X0158025Y0228825D03*
X0159650Y0220925D03*
X0147725Y0224275D03*
X0131625Y0224300D03*
X0125225Y0225300D03*
X0137425Y0207425D03*
X0145950Y0202475D03*
X0158675Y0207425D03*
X0170900Y0239300D03*
X0191575Y0246175D03*
X0197775Y0246375D03*
X0203575Y0246375D03*
X0212400Y0250625D03*
X0196175Y0268050D03*
X0201375Y0272450D03*
X0191175Y0263050D03*
X0205750Y0288150D03*
X0218675Y0290550D03*
X0192650Y0212150D03*
X0196800Y0204925D03*
X0119300Y0146800D03*
X0110900Y0129225D03*
X0103500Y0129425D03*
X0098300Y0127200D03*
X0100550Y0121175D03*
X0103650Y0106800D03*
X0089950Y0093050D03*
X0082700Y0092850D03*
X0083150Y0085550D03*
X0071800Y0084150D03*
X0061450Y0095550D03*
X0056200Y0089100D03*
X0066850Y0113050D03*
X0090550Y0077425D03*
X0108450Y0072675D03*
X0113850Y0075925D03*
X0116200Y0069925D03*
X0119950Y0073675D03*
X0134250Y0074075D03*
X0142050Y0088050D03*
X0147200Y0097550D03*
X0156975Y0085575D03*
X0162775Y0095975D03*
X0169975Y0075675D03*
X0160025Y0069725D03*
X0151425Y0073475D03*
X0161025Y0128975D03*
X0078050Y0153050D03*
D28*
X0120800Y0214200D03*
X0110800Y0227600D03*
X0129800Y0241000D03*
X0155000Y0198000D03*
X0175600Y0221200D03*
X0166200Y0084200D03*
D29*
X0182400Y0164600D03*
X0111800Y0257600D03*
X0132200Y0259600D03*
M02*
